{"title":"Under the Mountain-2009 AC3-XviD-BRRip-CC","uid":6809878,"size":1579690780,"categoryP":"video","categoryS":"movies","magnet":"?xt=urn:btih:81f05986779a0eba836a1c3e4bef2e62550e6f43&amp;dn=Under+the+Mountain-2009+AC3-XviD-BRRip-CC&amp;tr=udp%3A%2F%2Ftracker.openbittorrent.com%3A80&amp;tr=udp%3A%2F%2Fopen.demonii.com%3A1337&amp;tr=udp%3A%2F%2Ftracker.coppersurfer.tk%3A6969&amp;tr=udp%3A%2F%2Fexodus.desync.com%3A6969","seeders":0,"leechers":0,"uploader":"Caveman44","files":-1,"time":1321009552,"description":"[img]http://img840.imageshack.us/img840/985/underthemountain.jpg[/img]\n &lt;a href=&quot;\nhttp://www.imdb.com/title/tt1275861/&quot; rel=&quot;nofollow&quot; target=&quot;_NEW&quot;&gt;\nhttp://www.imdb.com/title/tt1275861/&lt;/a&gt;\n\nSubs: Arabic, Brazil-Portuguese, Dutch, English, Greek, Hungarian, Romanian, Spanish.\n\nSource: Under.the.Mountain.2009.720p.BluRay.x264-MELiTE \n\nSample included.\n\nGeneral\nComplete name                    : Under the Mountain-2009 AC3-XviD-BRRip-CC.avi\nFormat                           : AVI\nFormat/Info                      : Audio Video Interleave\nFile size                        : 1.46 GiB\nDuration                         : 1h 30mn\nOverall bit rate                 : 2 316 Kbps\nWriting application              : VirtualDubMod 1.5.4.1 (build 2178/release)\nWriting library                  : VirtualDubMod build 2178/release\n\nVideo\nID                               : 0\nFormat                           : MPEG-4 Visual\nFormat profile                   : Simple@L3\nFormat settings, BVOP            : No\nFormat settings, QPel            : No\nFormat settings, GMC             : No warppoints\nFormat settings, Matrix          : Default (H.263)\nCodec ID                         : XVID\nCodec ID/Hint                    : XviD\nDuration                         : 1h 30mn\nBit rate                         : 1 859 Kbps\nWidth                            : 720 pixels\nHeight                           : 304 pixels\nDisplay aspect ratio             : 2.35:1\nFrame rate                       : 23.976 fps\nResolution                       : 8 bits\nColorimetry                      : 4:2:0\nScan type                        : Progressive\nBits/(Pixel*Frame)               : 0.354\nStream size                      : 1.17 GiB (80%)\nWriting library                  : XviD 1.1.2 (UTC 2006-11-01)\n\nAudio\nID                               : 1\nFormat                           : AC-3\nFormat/Info                      : Audio Coding 3\nCodec ID                         : 2000\nDuration                         : 1h 30mn\nBit rate mode                    : Constant\nBit rate                         : 448 Kbps\nChannel(s)                       : 6 channels\nChannel positions                : Front: L C R, Surround: L R, LFE\nSampling rate                    : 48.0 KHz\nStream size                      : 289 MiB (19%)\nAlignment                        : Split accross interleaves\nInterleave, duration             : 42 ms (1.00 video frame)\nInterleave, preload duration     : 500 ms\n\n[img]http://img23.imageshack.us/img23/9136/underthemountainac3xvid.jpg[/img]","torrent":{"xt":"urn:btih:81f05986779a0eba836a1c3e4bef2e62550e6f43","amp;dn":"Under+the+Mountain-2009+AC3-XviD-BRRip-CC","amp;tr":["udp%3A%2F%2Ftracker.openbittorrent.com%3A80","udp%3A%2F%2Fopen.demonii.com%3A1337","udp%3A%2F%2Ftracker.coppersurfer.tk%3A6969","udp%3A%2F%2Fexodus.desync.com%3A6969"],"infoHash":"81f05986779a0eba836a1c3e4bef2e62550e6f43","infoHashBuffer":{"type":"Buffer","data":[129,240,89,134,119,154,14,186,131,106,28,62,75,239,46,98,85,14,111,67]},"announce":[],"urlList":[]}}